<svg xmlns="http://www.w3.org/2000/svg" xmlns:xlink="http://www.w3.org/1999/xlink" width="500" zoomAndPan="magnify" viewBox="0 0 375 374.999991" height="500" preserveAspectRatio="xMidYMid meet" version="1.0"><defs><clipPath id="51031383d0"><path d="M 53.199219 145.046875 L 326 145.046875 L 326 299.054688 L 53.199219 299.054688 Z M 53.199219 145.046875 " clip-rule="nonzero"/></clipPath><clipPath id="8294a347bb"><path d="M 56.949219 145.046875 L 322.113281 145.046875 C 323.105469 145.046875 324.0625 145.441406 324.765625 146.144531 C 325.46875 146.847656 325.863281 147.804688 325.863281 148.796875 L 325.863281 295.304688 C 325.863281 296.300781 325.46875 297.253906 324.765625 297.957031 C 324.0625 298.660156 323.105469 299.054688 322.113281 299.054688 L 56.949219 299.054688 C 55.953125 299.054688 55 298.660156 54.296875 297.957031 C 53.59375 297.253906 53.199219 296.300781 53.199219 295.304688 L 53.199219 148.796875 C 53.199219 147.804688 53.59375 146.847656 54.296875 146.144531 C 55 145.441406 55.953125 145.046875 56.949219 145.046875 Z M 56.949219 145.046875 " clip-rule="nonzero"/></clipPath><clipPath id="7b7d7ccbe9"><path d="M 41.558594 119.074219 L 337.609375 119.074219 L 337.609375 161.109375 L 41.558594 161.109375 Z M 41.558594 119.074219 " clip-rule="nonzero"/></clipPath><clipPath id="b7f5f57b8d"><path d="M 43.808594 119.074219 L 335.25 119.074219 C 335.847656 119.074219 336.417969 119.308594 336.839844 119.730469 C 337.261719 120.152344 337.5 120.726562 337.5 121.324219 L 337.5 158.859375 C 337.5 159.453125 337.261719 160.027344 336.839844 160.449219 C 336.417969 160.871094 335.847656 161.109375 335.25 161.109375 L 43.808594 161.109375 C 43.214844 161.109375 42.640625 160.871094 42.21875 160.449219 C 41.796875 160.027344 41.558594 159.453125 41.558594 158.859375 L 41.558594 121.324219 C 41.558594 120.726562 41.796875 120.152344 42.21875 119.730469 C 42.640625 119.308594 43.214844 119.074219 43.808594 119.074219 Z M 43.808594 119.074219 " clip-rule="nonzero"/></clipPath><clipPath id="0b5fa8cd38"><path d="M 37 51 L 337 51 L 337 133 L 37 133 Z M 37 51 " clip-rule="nonzero"/></clipPath><clipPath id="c60760cef4"><path d="M 37.5 90.757812 L 330.867188 50.96875 L 336.515625 92.621094 L 43.148438 132.410156 Z M 37.5 90.757812 " clip-rule="nonzero"/></clipPath><clipPath id="04eb2575fd"><path d="M 39.730469 90.457031 L 328.527344 51.285156 C 329.117188 51.207031 329.714844 51.363281 330.191406 51.726562 C 330.664062 52.085938 330.976562 52.621094 331.058594 53.214844 L 336.101562 90.40625 C 336.183594 91 336.023438 91.597656 335.664062 92.074219 C 335.300781 92.546875 334.765625 92.859375 334.175781 92.941406 L 45.378906 132.109375 C 44.789062 132.1875 44.1875 132.03125 43.714844 131.667969 C 43.238281 131.308594 42.925781 130.773438 42.847656 130.183594 L 37.804688 92.988281 C 37.722656 92.394531 37.878906 91.796875 38.242188 91.320312 C 38.601562 90.847656 39.140625 90.535156 39.730469 90.457031 Z M 39.730469 90.457031 " clip-rule="nonzero"/></clipPath><clipPath id="229dd27283"><path d="M 62 66 L 335 66 L 335 116 L 62 116 Z M 62 66 " clip-rule="nonzero"/></clipPath><clipPath id="dea9d06dfa"><path d="M 62.5 104.121094 L 332.828125 66.074219 L 334.425781 77.414062 L 64.097656 115.460938 Z M 62.5 104.121094 " clip-rule="nonzero"/></clipPath><clipPath id="aad43192a7"><path d="M 62.5 104.121094 L 332.824219 66.074219 L 334.417969 77.414062 L 64.097656 115.460938 Z M 62.5 104.121094 " clip-rule="nonzero"/></clipPath><clipPath id="f5fbc319a1"><path d="M 64.082031 134.746094 L 337.5 134.746094 L 337.5 145.433594 L 64.082031 145.433594 Z M 64.082031 134.746094 " clip-rule="nonzero"/></clipPath><clipPath id="fc3ac3488d"><path d="M 62 86 L 71 86 L 71 92 L 62 92 Z M 62 86 " clip-rule="nonzero"/></clipPath><clipPath id="0fd2118548"><path d="M 62.128906 87.300781 L 70.3125 86.273438 L 70.78125 89.992188 L 62.59375 91.023438 Z M 62.128906 87.300781 " clip-rule="nonzero"/></clipPath><clipPath id="b5738f7848"><path d="M 62.128906 87.300781 L 75.523438 85.617188 L 76.457031 93.058594 L 63.0625 94.742188 Z M 62.128906 87.300781 " clip-rule="nonzero"/></clipPath><clipPath id="ddb59154b1"><path d="M 62 87 L 79 87 L 79 300 L 62 300 Z M 62 87 " clip-rule="nonzero"/></clipPath><clipPath id="2b045d634d"><path d="M 67.105469 299.050781 L 62.089844 87.71875 L 73.480469 87.449219 L 78.496094 298.78125 Z M 67.105469 299.050781 " clip-rule="nonzero"/></clipPath><clipPath id="185b437a1d"><path d="M 67.105469 299.050781 L 62.09375 87.734375 L 73.480469 87.464844 L 78.496094 298.78125 Z M 67.105469 299.050781 " clip-rule="nonzero"/></clipPath><clipPath id="93015abd09"><path d="M 62.496094 86.265625 L 73.632812 86.265625 L 73.632812 93.117188 L 62.496094 93.117188 Z M 62.496094 86.265625 " clip-rule="nonzero"/></clipPath><clipPath id="e776ec46d9"><path d="M 62.496094 89.691406 L 73.617188 86.265625 L 73.617188 93.117188 Z M 62.496094 89.691406 " clip-rule="nonzero"/></clipPath><clipPath id="094a96dc93"><path d="M 67 85 L 74 85 L 74 98 L 67 98 Z M 67 85 " clip-rule="nonzero"/></clipPath><clipPath id="c7a7c337b6"><path d="M 75.140625 96.800781 L 68.851562 97.644531 L 67.375 86.613281 L 73.664062 85.769531 Z M 75.140625 96.800781 " clip-rule="nonzero"/></clipPath><clipPath id="65caec7355"><path d="M 71.996094 97.222656 L 67.375 86.621094 L 73.664062 85.777344 Z M 71.996094 97.222656 " clip-rule="nonzero"/></clipPath><clipPath id="c2eb25288c"><path d="M 67.359375 289.316406 L 78.492188 289.316406 L 78.492188 299.042969 L 67.359375 299.042969 Z M 67.359375 289.316406 " clip-rule="nonzero"/></clipPath><clipPath id="c0ca17bb10"><path d="M 72.933594 289.316406 L 67.375 299.042969 L 78.492188 299.042969 Z M 72.933594 289.316406 " clip-rule="nonzero"/></clipPath></defs><g clip-path="url(#51031383d0)"><g clip-path="url(#8294a347bb)"><path fill="#000000" d="M 53.199219 145.046875 L 325.71875 145.046875 L 325.71875 299.054688 L 53.199219 299.054688 Z M 53.199219 145.046875 " fill-opacity="1" fill-rule="nonzero"/></g></g><g clip-path="url(#7b7d7ccbe9)"><g clip-path="url(#b7f5f57b8d)"><path fill="#000000" d="M 41.558594 119.074219 L 337.445312 119.074219 L 337.445312 161.109375 L 41.558594 161.109375 Z M 41.558594 119.074219 " fill-opacity="1" fill-rule="nonzero"/></g></g><g clip-path="url(#0b5fa8cd38)"><g clip-path="url(#c60760cef4)"><g clip-path="url(#04eb2575fd)"><path fill="#000000" d="M 37.5 90.757812 L 330.703125 50.992188 L 336.351562 92.644531 L 43.148438 132.410156 Z M 37.5 90.757812 " fill-opacity="1" fill-rule="nonzero"/></g></g></g><g clip-path="url(#229dd27283)"><g clip-path="url(#dea9d06dfa)"><g clip-path="url(#aad43192a7)"><path fill="#ffffff" d="M 62.5 104.121094 L 332.828125 66.074219 L 334.425781 77.414062 L 64.097656 115.460938 Z M 62.5 104.121094 " fill-opacity="1" fill-rule="nonzero"/></g></g></g><g clip-path="url(#f5fbc319a1)"><path fill="#ffffff" d="M 64.082031 134.746094 L 337.488281 134.746094 L 337.488281 145.433594 L 64.082031 145.433594 Z M 64.082031 134.746094 " fill-opacity="1" fill-rule="nonzero"/></g><g clip-path="url(#fc3ac3488d)"><g clip-path="url(#0fd2118548)"><g clip-path="url(#b5738f7848)"><path fill="#ffffff" d="M 62.183594 87.34375 L 75.828125 85.628906 L 76.757812 93.039062 L 63.117188 94.757812 Z M 62.183594 87.34375 " fill-opacity="1" fill-rule="nonzero"/><path fill="#ffffff" d="M 76.765625 93.089844 L 63.121094 94.804688 C 63.09375 94.808594 63.070312 94.789062 63.066406 94.761719 L 62.132812 87.351562 C 62.128906 87.324219 62.148438 87.300781 62.179688 87.296875 L 75.820312 85.578125 C 75.847656 85.574219 75.871094 85.59375 75.875 85.625 L 76.808594 93.035156 C 76.8125 93.0625 76.792969 93.085938 76.765625 93.089844 Z M 63.160156 94.699219 L 76.703125 92.996094 L 75.78125 85.6875 L 62.242188 87.390625 Z M 63.160156 94.699219 " fill-opacity="1" fill-rule="nonzero"/></g></g></g><g clip-path="url(#ddb59154b1)"><g clip-path="url(#2b045d634d)"><g clip-path="url(#185b437a1d)"><path fill="#ffffff" d="M 67.105469 299.050781 L 62.089844 87.71875 L 73.480469 87.449219 L 78.496094 298.78125 Z M 67.105469 299.050781 " fill-opacity="1" fill-rule="nonzero"/></g></g></g><g clip-path="url(#93015abd09)"><g clip-path="url(#e776ec46d9)"><path fill="#ffffff" d="M 62.496094 93.117188 L 62.496094 86.265625 L 73.605469 86.265625 L 73.605469 93.117188 Z M 62.496094 93.117188 " fill-opacity="1" fill-rule="nonzero"/></g></g><g clip-path="url(#094a96dc93)"><g clip-path="url(#c7a7c337b6)"><g clip-path="url(#65caec7355)"><path fill="#ffffff" d="M 75.140625 96.800781 L 68.851562 97.644531 L 67.375 86.613281 L 73.664062 85.769531 Z M 75.140625 96.800781 " fill-opacity="1" fill-rule="nonzero"/></g></g></g><g clip-path="url(#c2eb25288c)"><g clip-path="url(#c0ca17bb10)"><path fill="#ffffff" d="M 78.492188 299.042969 L 67.359375 299.042969 L 67.359375 289.316406 L 78.492188 289.316406 Z M 78.492188 299.042969 " fill-opacity="1" fill-rule="nonzero"/></g></g><path stroke-linecap="butt" transform="matrix(0.75, 0, 0, 0.75, 93.294594, 244.722246)" fill="none" stroke-linejoin="miter" d="M -0.00216643 1.500548 L 280.44056 1.500548 " stroke="#ffffff" stroke-width="3" stroke-opacity="1" stroke-miterlimit="4"/><path stroke-linecap="butt" transform="matrix(0.75, 0, 0, 0.75, 93.294594, 217.961294)" fill="none" stroke-linejoin="miter" d="M -0.00216643 1.499524 L 280.44056 1.499524 " stroke="#ffffff" stroke-width="3" stroke-opacity="1" stroke-miterlimit="4"/><path stroke-linecap="butt" transform="matrix(0.75, 0, 0, 0.75, 93.294594, 271.633957)" fill="none" stroke-linejoin="miter" d="M -0.00216643 1.498474 L 280.44056 1.498474 " stroke="#ffffff" stroke-width="3" stroke-opacity="1" stroke-miterlimit="4"/><path stroke-linecap="butt" transform="matrix(0.75, 0, 0, 0.75, 93.294594, 175.019753)" fill="none" stroke-linejoin="miter" d="M -0.00216643 1.499704 L 280.44056 1.499704 " stroke="#ffffff" stroke-width="3" stroke-opacity="1" stroke-miterlimit="4"/><path stroke-linecap="butt" transform="matrix(0, 0.75, -0.75, 0, 157.859951, 176.146776)" fill="none" stroke-linejoin="miter" d="M 0.00221476 1.500768 L 57.257427 1.500768 " stroke="#ffffff" stroke-width="3" stroke-opacity="1" stroke-miterlimit="4"/><path stroke-linecap="butt" transform="matrix(0, 0.75, -0.75, 0, 239.200359, 176.146776)" fill="none" stroke-linejoin="miter" d="M 0.00221476 1.501521 L 57.257427 1.501521 " stroke="#ffffff" stroke-width="3" stroke-opacity="1" stroke-miterlimit="4"/></svg>