<svg xmlns="http://www.w3.org/2000/svg" width="1062" height="158" fill="none" viewBox="0 0 1062 158">
  <path fill="#EEE" d="M100.5 2.571v29.98H37.958v32.354h46.813v29.104H37.958v62.104H.563V2.571H100.5Zm57.091 124.667h49v28.875h-86.396V2.571h37.396v124.667ZM261.914 2.571v153.542h-37.396V2.571h37.396Zm20.769 76.563c0-15.167 3.276-28.688 9.833-40.563 6.568-11.885 15.719-21.15 27.458-27.791C331.709 4.144 345.016.82 359.891.82c18.219 0 33.818 4.813 46.792 14.438 12.984 9.625 21.666 22.75 26.041 39.375h-41.125c-3.057-6.417-7.39-11.297-13-14.646-5.614-3.36-11.995-5.041-19.146-5.041-11.515 0-20.849 4.015-28 12.041-7.14 8.016-10.708 18.73-10.708 32.146 0 13.417 3.568 24.135 10.708 32.146 7.151 8.015 16.485 12.021 28 12.021 7.151 0 13.532-1.672 19.146-5.021 5.61-3.36 9.943-8.25 13-14.667h41.125c-4.375 16.625-13.057 29.719-26.041 39.271-12.974 9.542-28.573 14.312-46.792 14.312-14.875 0-28.182-3.312-39.917-9.937-11.739-6.635-20.89-15.859-27.458-27.667-6.557-11.817-9.833-25.302-9.833-40.458Zm262.029 76.979-51.625-67.791v67.791h-37.396V2.571h37.396v67.376L544.275 2.57h43.958l-59.5 75.25 61.687 78.292h-45.708Zm156.376-78.729c8.886 1.89 16.026 6.302 21.417 13.23 5.401 6.931 8.104 14.843 8.104 23.728 0 12.834-4.49 23.011-13.458 30.521-8.959 7.5-21.459 11.25-37.5 11.25H608.13V2.571h69.104c15.609 0 27.823 3.579 36.646 10.73 8.818 7.14 13.229 16.833 13.229 29.083 0 9.042-2.375 16.557-7.125 22.542-4.74 5.974-11.036 10.125-18.896 12.458Zm-55.562-12.688h24.5c6.125 0 10.823-1.343 14.104-4.041 3.276-2.709 4.917-6.688 4.917-11.938 0-5.234-1.641-9.234-4.917-12-3.281-2.776-7.979-4.166-14.104-4.166h-24.5v32.145Zm27.562 61.23c6.261 0 11.11-1.417 14.542-4.25 3.427-2.844 5.146-6.969 5.146-12.375 0-5.386-1.792-9.61-5.375-12.667-3.573-3.068-8.49-4.604-14.75-4.604h-27.125v33.896h27.562Zm151.774 31.708c-14.432 0-27.662-3.344-39.688-10.042-12.031-6.708-21.583-16.073-28.666-28.104-7.073-12.042-10.604-25.568-10.604-40.583 0-15.01 3.531-28.5 10.604-40.459 7.083-11.958 16.635-21.291 28.666-28C797.2 3.739 810.43.385 824.862.385c14.443 0 27.677 3.354 39.708 10.063 12.026 6.708 21.5 16.041 28.417 28 6.927 11.958 10.396 25.447 10.396 40.458 0 15.015-3.5 28.541-10.5 40.583-7 12.031-16.479 21.396-28.438 28.104-11.948 6.698-25.14 10.042-39.583 10.042Zm0-34.104c12.25 0 22.052-4.084 29.417-12.25 7.359-8.167 11.041-18.959 11.041-32.375 0-13.552-3.682-24.375-11.041-32.459-7.365-8.093-17.167-12.145-29.417-12.145-12.391 0-22.266 4.01-29.625 12.02-7.365 8.016-11.042 18.876-11.042 32.584 0 13.573 3.677 24.406 11.042 32.5 7.359 8.083 17.234 12.125 29.625 12.125Zm193.338 32.583-31.268-47.021-27.562 47.021h-42.438l49.209-78.083-50.292-75.46h43.521l30.833 46.376L1017.33 2.57h42.44l-48.78 77.438 50.73 76.104h-43.52Z"/>
</svg>
